# xmcd
#
# Track frame offsets:
#	150
#	24219
#	42414
#	100643
#	116922
#	127957
#	142793
#	161388
#	186732
#	201874
#	256420
#	289653
#
# Disc length: 4105 seconds
#
# Revision: 0
# Processed by: cddbd v1.4PL0 Copyright (c) Steve Scherf et al.
# Submitted via: dBpowerAMP V4.0
#
DISCID=a510070c
DTITLE=Chinois - Impressions de Chine
DYEAR=1900
DGENRE=Country
TTITLE0=shepherd song
TTITLE1=give me a rose
TTITLE2=lanluha
TTITLE3=biutiful girl
TTITLE4=in a land
TTITLE5=thing kit
TTITLE6=a short song
TTITLE7=A sheperd song
TTITLE8=Embrose
TTITLE9=capricio
TTITLE10=xiobaika
TTITLE11=a yemen song
EXTD=
EXTT0=
EXTT1=
EXTT2=
EXTT3=
EXTT4=
EXTT5=
EXTT6=
EXTT7=
EXTT8=
EXTT9=
EXTT10=
EXTT11=
PLAYORDER=
